<svg xmlns="http://www.w3.org/2000/svg" viewBox="0 0 62.95 60.6"><defs><style>.cls-1{fill:#f2e2e9;}.cls-2{fill:#fec9dd;}.cls-3{fill:#fef5f9;}.cls-4{fill:#fef7f9;}.cls-5{fill:#fef9fa;}.cls-6{fill:#fefdfd;}.cls-7{fill:#fef8fa;}.cls-8{fill:#fef5f8;}.cls-9{fill:#fef2f6;}</style></defs><title>flower2</title><g id="Layer_2" data-name="Layer 2"><g id="Layer_3" data-name="Layer 3"><path class="cls-1" d="M11.93,57.17C7.64,52.52,5.79,47.4,8.8,41.3c.65-1.31.63-2.12-.94-3.15-7.47-4.92-9.57-10.73-6.5-17,3-6.11,9.1-8.22,17.36-5.75C18.57,7.73,20.8,1.47,29.36.18,35.81-.79,40.17,2.23,43.16,9c1.41,1.63-.07,5.38,3.82,5.18,7.77-.92,12.33,3.09,15.11,9.84,2.17,5.09,0,9.24-3.56,12.39C55.9,38.76,55.09,41,56,44.11h0c1.82,6.6.18,11.37-5,14.62a12.5,12.5,0,0,1-15.1-1.5l-1-1c-2.12-1.57-3.56-2.09-5.79.63C25,61.89,16.84,61.71,11.93,57.17Z"/><path class="cls-2" d="M31.07,37.19c-3.58-.33-6.06-2.07-6-5.88,0-3.39,2.1-6,5.51-5.9s6.47,1.91,6.27,5.76C36.68,34.31,35.48,37.54,31.07,37.19Z"/><path class="cls-3" d="M41,38.44c1.75.27,3,1.09,3.12,3.11.12,2.23-1,3.5-3.18,3.48-2,0-2.84-1.37-3-3.26C37.85,39.67,39.14,38.86,41,38.44Z"/><path class="cls-4" d="M44.76,29.13c1.84.54,3.29,1.58,3,3.72a3.06,3.06,0,0,1-3.48,2.73c-1.77-.11-3.24-1.21-3.16-3.09S42.62,29.33,44.76,29.13Z"/><path class="cls-5" d="M24.9,21.62a3.36,3.36,0,0,1-3,3.36c-2.21.31-3.49-1.15-3.67-3.13s1.27-3.05,3.11-3.12A3.24,3.24,0,0,1,24.9,21.62Z"/><path class="cls-6" d="M18.28,28.15c2.2.14,2.79,1.51,2.69,3.42A2.56,2.56,0,0,1,18,34.21a2.71,2.71,0,0,1-3-3.15C15.15,29,16.34,28.13,18.28,28.15Z"/><path class="cls-7" d="M30.87,14.13c2,.09,3,.94,3.1,2.74S33.2,20,31.53,20A3,3,0,0,1,28.33,17,2.69,2.69,0,0,1,30.87,14.13Z"/><path class="cls-8" d="M31.27,42.05A2.6,2.6,0,0,1,34,44.7a2.62,2.62,0,0,1-2.53,3,2.9,2.9,0,0,1-3.21-3C28.16,43,29.39,42.18,31.27,42.05Z"/><path class="cls-8" d="M24.78,41c-.31,1.73-.9,3-2.78,3a2.47,2.47,0,0,1-2.79-2.23c-.16-1.77,1-2.69,2.69-2.82A2.67,2.67,0,0,1,24.78,41Z"/><path class="cls-9" d="M40.61,19.43a2.34,2.34,0,0,1,2.5,2.43c.11,1.7-.66,3-2.46,3.1-1.58.12-2.43-.88-2.61-2.39C37.83,20.7,39,19.89,40.61,19.43Z"/></g></g></svg>