<svg xmlns="http://www.w3.org/2000/svg" viewBox="0 0 64.43 61.44"><defs><style>.cls-1{fill:#f9e5ec;}.cls-2{fill:#e2ccd6;}.cls-3{fill:#fbb8ce;}</style></defs><title>flower1</title><g id="Layer_2" data-name="Layer 2"><g id="Layer_3" data-name="Layer 3"><path class="cls-1" d="M61.23,23.92c2,.18,4.17.14,2.76,3.22-1.89,7-7.72,9-13.39,10.87,1.92,0,3,1.24,3.43,3.19l4.1,7.91c1.5,3.49.31,5-3.42,4.64-2.29-.24-3.33.74-3.5,3-.32,4.21-1.58,5.13-5.67,4.48a8.61,8.61,0,0,1-5.41-3.2l-5-5.91a4.4,4.4,0,0,1-2.74-3.75c-2.92,8.42-8.58,13.22-15.27,12.88-2.47.36-3.41-.71-2.93-3.13.12-4.53-3-4.25-6-4.06s-2-2-1.82-3.41c.6-4.21,3-7.48,5.87-10.48,1-1.56.87-2.53-1.17-3.09a9.89,9.89,0,0,1-5.9-4l-.63-.77C2.57,30.09-.75,27.68.15,25c.82-2.48,5-1.28,7.68-2.17a7.11,7.11,0,0,0-.21-1.41c-.82-2.28-4-4.84-2.54-6.5,1.89-2.09,5.66-1.13,8.57-.58s5.52,2.18,8.48,5c-1.49-7.68-.85-14,4.39-19.31.66.72,1.25,1.26,1.72,1.89,3.58,4.83,3.7,4.93,7.07,0,1.64-2.41,2.81-1.84,4,0,1.09,1.65,1.95,3.45,2.91,5.19,1.23,2.8,1.12,5.73.87,8.69s1.6-.45,2,.62c3.82-1.5,7.63-2.88,11.91-2.31,2.94.4,3,1.77,1.88,3.93C58.22,20.57,58.24,22.83,61.23,23.92Z"/><path class="cls-2" d="M32.52,38.57c-1.73,2-2.85,3.72-4.36,4.95-1.67,1.36-4.23,4.28-4.41-1.13,0-.36-.55-1-.82-1-6.63.22-2.51-3.37-1.42-4.88,1.46-2,1.41-2.75-.7-4.14-1.89-1.25-7.08-2.56-1.28-5.81-1.36-5.85,2.26-4.07,5.33-3.65,1.54.21,2-1.32,2.3-2.74.49-2.21.72-5.22,4.24-2.5a1.25,1.25,0,0,0,1.79-.26c2.65-3.48,3.28,0,3.58,1.33.7,3.16,1.81,4.83,5.38,3.63,1.54-.52,3.7.16,2.56,2.09-1.93,3.25,4.39,2,2.28,5.07-1.3,1.89-3.43,2.58-4.86,4.19a1.38,1.38,0,0,0,.23,2.15c1.32,1.19,2.66,3.43,1.85,4.23C42.7,41.59,41.5,44,40,44.59,37.32,45.74,35.35,43,33.65,41A11.27,11.27,0,0,1,32.52,38.57Z"/><path class="cls-3" d="M32.16,35.19c-2.62-.48-4.7-1.9-4.92-4.65-.24-3.07,1.81-5,4.72-5.23s4.63,2.17,4.74,4.72S35,34.55,32.16,35.19Z"/></g></g></svg>