<svg xmlns="http://www.w3.org/2000/svg" viewBox="0 0 59.15 58.26"><defs><style>.cls-1{fill:#f2ebee;}.cls-2{fill:#e2c3be;}.cls-3{fill:#e2c3d1;}.cls-4{fill:#fec0d6;}</style></defs><title>flower3</title><g id="Layer_2" data-name="Layer 2"><g id="Layer_3" data-name="Layer 3"><path class="cls-1" d="M0,23C1.43,22,1.22,20.34,1.81,19c3.27-7.28,7.11-8.55,15-4.78.3-9.71,2.28-12.54,9.8-14C33.62-1,39,2,42,8.94c1.21.87-.61,4.67,3.06,3.16C52.72,10.17,55.26,15.66,57.9,21c2.89,9,.89,13.85-7.24,16.7,1,1,2.17,1.88,2.12,3.33l.37,2a5.4,5.4,0,0,1,.67,2.84C52.88,53.2,41,59.88,33.92,57.06l-1.11-1c-1.53-.28-2.44-1.46-3.47-2.48C24.52,60.34,17,59.72,9.95,52.08c-5.68-7.35-5.68-9.48.29-14.88C4.63,37.66,2.47,33.61,0,30Z"/><path class="cls-2" d="M45.05,12.1l-3.58,2.65c-1-2.27.36-4,.52-5.81Z"/><path class="cls-3" d="M29.16,12.87c1.58.61,4.61,1.07,4.73,1.92.87,6.54,9.93,3.83,10.85,10a3.07,3.07,0,0,0,.12.48c1.34,4.2-4.34,7.16-3.75,8.45,2.14,4.67-.53,6.63-3.26,8.65-2.27,1.68-5.05,3-7.52.06-.72-.85-1.28-.93-2-.19-3.21,3.5-6.13,1-8.85-.63S16,37.31,18,34.37c.82-1.21-.28-1.26-1-1.55-3.68-1.5-3.38-4.71-2.83-7.61s2-5.42,5.57-5.27c2.13.09,2.77-1.16,3.36-2.91C24,14.34,26.5,13.66,29.16,12.87Z"/><path class="cls-4" d="M31.76,29.28c.1,1.93-2.29,2.47-3.42,3.79s-.49-1-.9-1.49c-.84-1-1.38.07-1.94.52-.85.67-1.6.53-1.86-.46a1.29,1.29,0,0,1,1.45-1.55c2.68.14,1.44-5.46,5.23-3.48A2.33,2.33,0,0,1,31.76,29.28Z"/></g></g></svg>