<svg xmlns="http://www.w3.org/2000/svg" viewBox="0 0 14.12 32.47"><defs><style>.cls-1{fill:#e5d9d1;}.cls-2{fill:#afafaf;}</style></defs><title>leaf</title><g id="Layer_2" data-name="Layer 2"><g id="Layer_2-2" data-name="Layer 2"><path class="cls-1" d="M14.12,17.56c0,7.56-2.94,13.7-6.64,13.71a4.22,4.22,0,0,1-1.62-.36A10.65,10.65,0,0,1,.75,17.61C2.86,12.42,5.19-2.54,6.94.72,10.15,6.7,14.1,10,14.12,17.56Z"/></g><g id="Layer_3" data-name="Layer 3"><path class="cls-2" d="M6.19,0,7.26,24.23l-3-6.45,3,8.52-.44,6.17.71-.08.82-7.3,2-8.93-2.2,5-.57-9.82L8.75,6.48,7.38,8.87,6.7,2.38Z"/></g></g></svg>