<svg xmlns="http://www.w3.org/2000/svg" viewBox="0 0 85.98 81.32"><defs><style>.cls-1{fill:#a4ac37;}.cls-2{fill:#9a9386;}.cls-3{fill:#4c4636;}.cls-4{fill:#3c3729;}.cls-5{fill:#8d857c;}.cls-6{fill:#6d6755;}.cls-7{fill:#69614c;}.cls-8{fill:#827769;}.cls-9{fill:#504b3d;}.cls-10{fill:#837769;}.cls-11{fill:#505a58;}.cls-12{fill:#5c594f;}</style></defs><title>mountain</title><g id="Layer_2" data-name="Layer 2"><g id="Layer_7" data-name="Layer 7"><path class="cls-1" d="M1.28,79.59"/><path class="cls-1" d="M1.72,79.44"/><path class="cls-2" d="M16,44.89C20.43,27.14,32.08,8.12,48.83,0c.52,1.79-12.07,29.58-13.08,29.4a18.89,18.89,0,0,1-1.16-6.76C34.52,22.79,19.71,63.7,16,44.89Z"/><path class="cls-3" d="M41.39,15.12Q45,7.51,48.83,0C53.19,3.89,88,40.23,71.9,47.1c-3.93-.7-3.82-19.46-8.62-19.15C61.34,28.07,60.47,43,58.45,42c1.14.69-8.87,21.58-11.58,21.63C39.65,63.78,59.56,28,59.55,27.85,59.31,24,50.49,10,48,9.15,48.07,9.05,42.53,15.41,41.39,15.12Z"/><path class="cls-4" d="M82,45.32"/><path class="cls-4" d="M86,69c.56-2.84-28.2,14.43-30,10.14,2.13-14.87,14.85-52.5,14.78-52.46"/><path class="cls-4" d="M87.29,57.54"/><path class="cls-4" d="M82.16,52.1"/><path class="cls-4" d="M82.41,50.21"/><path class="cls-5" d="M0,80.79c2.28-7.23,1.45-15.57,4.47-22.56,1.94-4.49,11-10.62,11.51-13.34,5,4.49-2.74,12.34-3.36,14.2-2.39,7.14.26,15-2.37,22q-3,.18-6.09.22"/><path class="cls-5" d="M1.68,62.44"/><path class="cls-5" d="M4.94,63.13"/><path class="cls-6" d="M12.92,61"/><path class="cls-6" d="M15,65.51"/><path class="cls-6" d="M17.47,77.8"/><path class="cls-6" d="M19,78.9c-.37.39-.74.65-1.16.06"/><path class="cls-6" d="M6.06,81.09c2,.36,2.15-49.6,23.89-33.69C33.63,50.1,31.83,71,29.5,76.27c-.3.67-8.82.46-11.69,4.73"/><path class="cls-7" d="M14.84,67.34a1,1,0,0,1-1,1C14,67.7,14.59,67.68,14.84,67.34Z"/><path class="cls-8" d="M41.39,15.12A28.84,28.84,0,0,1,48.85,8c-1.24-.48,11.59,15.72,11.56,15.62,2,7.2-6.21,14.72-7.74,21.19-1.14,4.81,1,22.47-.35,27.51-2.09,7.54-12.19,8.69-22.59,4C28.92,76,24.19,51.5,24,50.62c-1.68-8.87,7-21.41,10.78-29.11C35.72,33.22,38.56,21,41.39,15.12Z"/><path class="cls-9" d="M23.62,49.44c6,7.69,9.61,13.35,10.91,22.68.77-.94-6.72,2.78-5.37,3.48-2.75-7.42-4.76-24.84-13-27.36Q16.68,42.2,23.62,49.44Z"/><path class="cls-10" d="M71.88,47c-2.94.6-8.32,27.59-13.38,30.8,4.65-.28-6.84-5.92-5.24-4-1.61-7.78,1.88-21,5.8-27.62-3.32,5.65,14.53,22,1.67,31.92C57.38,80.67,50,81.87,46.38,76.7c-1-1.45,15.51-49.4,16.89-49.48C66.8,27,69.86,45.75,71.88,47Z"/><path class="cls-11" d="M53.4,73.91l-1,5.77c-4.84-3,3.69-31.53,7.48-35.3C61.51,52,52,64.73,53.4,73.91Z"/><path class="cls-12" d="M58.45,78c-.5-6.42,4.84-20.69,9.81-24.1,5.13-3.52,2.45-6.9,11.09,2.9C98.29,78.3,72,78.45,58.45,78Z"/></g></g></svg>