<svg xmlns="http://www.w3.org/2000/svg" viewBox="0 0 315.63 125.18"><defs><style>.cls-1{fill:#fdfdfd;}.cls-2{fill:#fcf7f7;}</style></defs><title>sky1</title><g id="Layer_2" data-name="Layer 2"><g id="Layer_4" data-name="Layer 4"><path class="cls-1" d="M37.39,81.2A24.81,24.81,0,0,1,49.21,74c2.24-.44,3.26-1.89,3.51-4.08C54,59,58.81,53.49,69.3,51c8.34-2.52,16.48-2.42,24.25,2,2,1.11,3.84,0,5.76,0,6-.11,10.39-4.66,15.94-6h0c2.71.1,4.63-2.44,7.22-2.32-4.92-3.33-6.59-7.23-5.32-12.7.21-10.18,4-15,13.7-17,2.1-.45,3.05-1.79,4.09-3.29C145.22-3.29,169.17-4,180.16,10.36c2,2.6,3.84,4.38,7.45,4.89,5.83.83,10.9,7.23,11.46,13.58.25,2.83.31,5.48,2.15,7.95.91,1.22,1.63,3.43,1.14,4.69-2.07,5.32.71,7.78,4.94,9.67,5.27,2.88,10.62,1.82,15.51-.55,8.4-4.07,16.47-3.79,24.6.39,6.38,4.2,12.83,8.35,14,16.89-.59,5.44,2.68,6.9,7.24,7,11.1,3.09,14.27,12.39,6.92,20.27-3.2.93-4.73-1.3-5.76-3.54A12.69,12.69,0,0,0,259.52,84c-4.44-.7-8.1-2.49-10.63-6.54-1.58-2.53-4.26-4.14-6.77-5.81-5.61-3.73-11.19-4.16-16.51.38a15.51,15.51,0,0,1-14.34,3.54c-4.11-.89-8.19,1-12.25,1.75-3.78.68-5.8-.48-6.33-4.19A13.85,13.85,0,0,0,186.13,63a14,14,0,0,1,6.64,10.35c.52,3.5,2.46,4.58,6,4,8.78-1.47,16.49.89,22.73,7.38,2,2.11,4,2.92,7.08,2,6.65-2.08,12.83.36,18.76,3a13.71,13.71,0,0,0,10.07,1c4.64-1.36,8.93.26,12.69,2.93A14.71,14.71,0,0,0,275.49,96c4,1.08,8,2.13,11.33,4.86a5.68,5.68,0,0,0,3.8.94c5.81,0,10.92,1.2,13.19,7.51.86,2.38,3.07,1.47,4.77,1.6,3,.22,7,.71,7,3.85.07,3.33-4.23,3.49-6.8,3.32-5.12-.34-10.08-.24-15,1.29a5.67,5.67,0,0,1-3.46,0c-10.29-4-20.86,3-31.16-.84-1.38-.51-2.37.89-3.41,1.69-8.22,6.29-16.07,6.62-24.21.62-2.07-1.53-3.64-1.89-5.81-.7a9.65,9.65,0,0,1-8.25.6c-4.88-2.1-10.21-1.41-15-3.25a6.74,6.74,0,0,0-4.86.28c-7.12,2.62-14.35,2.29-21.58.53-1.29-.31-2.52-.89-3.89-.53-9.47,2.49-18.94.53-28.41.52-9.67,0-19.13.88-28.91-.68-4.21-.67-9.84.5-14.47,2.71a10.49,10.49,0,0,1-8.77.22c-3.42-1.61-5.58-.9-8.43,1.21-6.62,4.92-15.29,4.55-22.18-1A8.26,8.26,0,0,0,53.8,119c-6.28.89-12.61,1.22-18.67-1.36a4.22,4.22,0,0,0-3.81.22,15.4,15.4,0,0,1-13.92.2,6.7,6.7,0,0,0-4.78-.23,16.91,16.91,0,0,1-9.82-.53C1.45,116.76.28,116,0,114.66a2.5,2.5,0,0,1,2.37-2.72c6.16-.13,10.49-2.95,13.89-8,.83-1.22,3.26-1.37,4.95-2,2.85-1.22,5.54-2.77,8.39-4,4.06-1.72,7.84-3.17,5.24-9.09C33.77,86.36,36.06,83.64,37.39,81.2Z"/><path class="cls-2" d="M275.49,96c-2.48,1.5-4.65.92-6.9-.69-3.83-2.75-8-4-12.63-1.94-2.89,1.27-5.42.22-8.1-.94-6.85-3-13.67-6.46-21.44-2.67a3.16,3.16,0,0,1-4.09-.93c-6.19-8.82-15.67-9.89-25.2-10.58-3.18-.23-4.67-1.17-5.22-4.48-1-6-5.45-9.64-10.41-12.83,6-.08,10.35,3.71,11.78,10.05s1.45,6.21,7.68,3.93c4-1.47,8.25-2.53,12.68-1.3,2.58.72,5.14.85,7.59-1,12-8.9,22-7.35,30.65,4.93a7.63,7.63,0,0,0,5.9,3.71c6.57.83,12.2,3.27,14.42,10.38a6.3,6.3,0,0,0,3.37,3.53A2.4,2.4,0,0,1,275.49,96Z"/><path class="cls-2" d="M37.39,81.2C36.63,85.62,35.56,90,39.11,94c1,1.12.14,2.3-1.15,2.66-5.64,1.58-10.22,6.46-16.71,5.36,2.64-3.11,4.69-6.84,9.18-7.86,1.85-.42,1.64-2.19,1.9-3.66C33,86.82,34,83.36,37.39,81.2Z"/><path class="cls-2" d="M247.42,51c-8.32-1.82-16.2-1.94-24.51,1.61-4.49,1.91-10.73,2.44-15.61-1.45,4.56,1.36,8.61,1.56,13-1.58C228.26,43.88,241.35,45,247.42,51Z"/><path class="cls-2" d="M69.3,51c-7.93,4.1-14,9.62-15.33,19.11-.34,2.41-1.75,4.33-4.77,3.83,1.63-.85,2.11-2,1.91-4C49.88,58.41,57.38,50.69,69.3,51Z"/><path class="cls-2" d="M117.19,31.93c1.18,5.94,4,10.71,10.54,13.95-4.83-.13-8.47,1.76-12.43,1.07,2.43-.92,2.6-2.26,1.33-4.51C114.65,38.93,114.35,35.28,117.19,31.93Z"/><path class="cls-2" d="M115.24,47c-5,2.84-9.54,6.9-15.94,6C105,52.06,109,46.56,115.24,47Z"/><path class="cls-2" d="M108.83,56.61c13.31-.57,20.92,11.52,14.73,23-1.66,3.08-.63,4.68,2.18,5.75,1.21.46,2.68.28,4.13,2.69-4.86-.81-9.11-1.64-14.38.22,3.74-6.74,10-11.49,8.27-19S115.06,59.47,108.83,56.61Z"/><path class="cls-2" d="M55.25,101c2.69-1.8,5.33-3.68,8.09-5.36a15.55,15.55,0,0,0,6.17-6.94c2.09-4.48,1.22-7.82-3-10.53a33.34,33.34,0,0,1-3.9-2.6c4.75.43,8.85,2.19,10.28,7S72.38,91.48,69,94.78c-2.92,2.86-4.54,5,2,6.2C65.25,101,60.35,100.55,55.25,101Z"/><path class="cls-2" d="M189.94,22.13c7.5,4.83,6.06,14.69-2.74,17.67C191.29,33.93,194,28.43,189.94,22.13Z"/></g></g></svg>