<svg xmlns="http://www.w3.org/2000/svg" viewBox="0 0 157.72 84.23"><defs><style>.cls-1{fill:#fdfdfd;}.cls-2{fill:#fcf7f7;}</style></defs><title>sky2</title><g id="Layer_2" data-name="Layer 2"><g id="Layer_5" data-name="Layer 5"><path class="cls-1" d="M49.58,44.39c-.83-.31-2.68-.08-2.33-1,1.12-3-1.65-2.29-2.61-3.26-3.55-.71-7.15-.07-10.7-.38-1.6-.14-4.32,1.11-4.51-1.35-.21-2.7,2.91-1,4.23-1.93,6-.27,11.7-3.21,17.88-2.34a28,28,0,0,1,14.7-9.71,4,4,0,0,0,3.28-3.25C72.32,8.76,79.74,1.46,92.71.39c9.31-.89,18.66-.77,25.9,6,5.35,5,10.31,9.69,17.53,12.42,6.92,2.62,9.54,12.15,7.35,19.83-1.84,6.47-8.57,11.54-15.69,11.78-1.33,0-2.66,0-4,0A19.87,19.87,0,0,1,117.28,61c-.89.77-1.92,1.51-1.65,2.83.31,1.5,1.72,1.4,2.82,1.41,4.1,0,6.28,2.29,7.29,6,4.14,3.81,9.39,4.27,14.59,4.74,5.72.52,11.59-.43,17.4,1.46-1.39,2.13-3.38,1.92-5.07,2-15.71.67-31.4,3.82-47.16.2-3.23-.74-5.59,2.72-8.82,2.83-9,1.35-18.12,1.33-27.22,1.33-2.82,0-5.64.08-8.46,0-1.35-.05-3.58.77-3.68-1.31a3.77,3.77,0,0,1,3.54-4.07c2.94-.2,5.73-1.43,8.73-1.07-4.29-.48-8.81,2.86-12.9-.81-4.91-1.83-9.8-2.32-14.66.2a3,3,0,0,1-1.93.37C29,74,17.59,76,6.44,74.31a11.39,11.39,0,0,1-2.69-1.16C1.85,69,2.61,67,6.67,65.73a14.83,14.83,0,0,1,6.4-.21c5.16.66,10.06-.16,13.24-4.59,3-4.14,7.11-5.52,11.58-5.58,5-.06,8.86-2.64,12.69-5.05C53.89,48.21,51.25,46.16,49.58,44.39Z"/><path class="cls-2" d="M92.71.39C87,2.62,81.27,4.89,77.18,9.9,75,12.52,72.5,15.31,72.4,18.5c-.19,5.89-2.92,8.25-8.37,9.14-3.09.51-5.82,2.45-8.05,4.78a4.67,4.67,0,0,1-4.43,1.69C50.81,25.31,55.11,19.76,63,16.6a4.72,4.72,0,0,0,2.88-2.39C71.4,3,80.61-1.14,92.71.39Z"/><path class="cls-2" d="M49.58,44.39c3.82-.51,4.5,2.89,6,5,1.23,1.78-.71,2.21-1.88,2.56-6.54,2-12.27,6.38-19.59,6.2a7.54,7.54,0,0,0-6.91,4.33c-3.17,7.21-9.32,5.08-14.66,5-2.69,0-5.31-.44-7.69,1-1.77,1.1-1.16,2.92-1.07,4.54-2-1-3.94-2.28-3.74-4.77s2.41-3.31,4.38-4.27c5.66-2.75,12.12-1.47,17.93-3.63,1.61-.6,2.72-.86,3.66-2.61,3.67-6.84,8.75-8.73,16.18-6.52C45.15,52.24,49.11,48.53,49.58,44.39Z"/><path class="cls-2" d="M56.68,76.49A53.81,53.81,0,0,0,74,75.7c1.84-.36,3.23-.12,4,2.74-3.16,0-6.06-.11-9,0-2.47.12-4.93.54-7.4.81-1.62.18-3.3.91-3.11,2.56s2.17,1.05,3.35,1c10.78-.11,21.56-.31,32.33-.48.83,0,1.66,0,2.48,0a7.58,7.58,0,0,1-5.52,1.77c-11.9,0-23.8,0-35.69,0-1.77,0-3.68.16-5.1-1.77,1.07-1.78,3.09-1.57,4.68-2C57.58,79.81,57.84,78.52,56.68,76.49Z"/><path class="cls-2" d="M125.73,71.23a9.74,9.74,0,0,0-9-4c-1.25.09-3.33,1.27-3.77-.95s-.48-5.73,1.54-6.35c5.08-1.57,7-5.63,9.32-9.49-.32,4.73-4,9.64,1.57,14C126.55,65.39,125.67,68.9,125.73,71.23Z"/><path class="cls-2" d="M33.66,36.45l-3.6,1.73c5,2.33,10.17-.34,14.59,1.94-9.65.18-19.3.31-28.81-2C21.69,36.24,27.66,36.12,33.66,36.45Z"/><path class="cls-2" d="M74.46,27.39C87.23,29.73,92.7,41.24,85.23,52.2c-.49-5.63,1.56-10.39-.53-14.88C82.53,32.68,78.68,30,74.46,27.39Z"/></g></g></svg>