<svg xmlns="http://www.w3.org/2000/svg" viewBox="0 0 186.06 62"><defs><style>.cls-1{fill:#fcf7f7;}.cls-2{fill:#f5fafb;}.cls-3{fill:#ebf4fb;}.cls-4{fill:#f1fafb;}</style></defs><title>sky3</title><g id="Layer_2" data-name="Layer 2"><g id="Layer_6" data-name="Layer 6"><path class="cls-1" d="M105.9,24.68a10.41,10.41,0,0,1,1.53,2.42c1,3.24,2.52,5.12,6.34,4.08a5.28,5.28,0,0,1,5,1.58,2.38,2.38,0,0,1-2.44,1.63c7.95,1.56,17.34.21,25.36,5.45,2,2.9,3.79,6.15,8.1,5.91-.42,2.8-3,1.27-4.3,3.2,13.33,2.22,26.9.46,40.59,4.66-3,2.5-5.91,2.91-8.75,3.09-13.79.85-27.52,2.57-41.38,2.25a111.88,111.88,0,0,0-18.33,1.31c-7.79,1.11-15.87.34-23.82.16a14.21,14.21,0,0,0-4.88.34c-6.26,2-12.15,1.46-18.42-1-4.29-1.68-9.5-1.7-14.23-1.39a207.06,207.06,0,0,1-26.4-.06C23.63,58,17.29,59.16,11,59a25.41,25.41,0,0,1-8.75-1.78C1.19,56.78-.23,56.62,0,55c.22-1.38,1.33-1.8,2.53-2l.5-.06C9.35,52.25,14.93,50.7,15.6,43c2.71-.58,4.65-2.76,7.32-3.47,1.82-.49.67-1.75.54-2.73A3.35,3.35,0,0,0,24,33.53c-1.47-5.27.84-8.92,5.24-11.58,2.78-1.68,5.58-3.34,8.37-5,4.75.25,8.07-1.41,10.84-5.72C52.74,4.52,59,.45,67.54,2l1.93-.21c9-.77,14.69,4,20,10.65A43.62,43.62,0,0,0,105.9,24.68Z"/><path class="cls-2" d="M105.9,24.68c-2.23,1.81-3.85.16-5.1-1.24a22.35,22.35,0,0,0-9.48-6.11c-.91-.32-2.13-.76-2.48-1.5C85,7.53,77.47,4.32,69.47,1.74c10.65-3.62,17.89-.29,22.42,9.8,1.92,4.27,5.79,7,9.77,9.33C103.38,21.87,105.2,22.61,105.9,24.68Z"/><path class="cls-3" d="M67.54,2c-8.42,1.69-15,5.73-19.57,13.4-2,3.37-6.46,4-10.38,1.59,1.36-.95,2.65-2,4.43-2.08,1.56-.06,2.17-1,2.59-2.47C47.75,1.2,56.54-2.76,67.54,2Z"/><path class="cls-4" d="M141.67,39.85c-.86.81-1.74.62-2.75.23-8.32-3.24-17-4.16-25.87-4.21-1.58,0-4.48,1.07-4.43-1.42,0-2.13,2.93-1.42,4.65-1.55s3.66-.09,5.48-.12A8.94,8.94,0,0,0,126,34.22C132,33.26,137.71,34.45,141.67,39.85Z"/><path class="cls-3" d="M114.85,51.33c-4.3-2.65-8.78-2.73-13.44-2.07-1.92.27-1.61-1.67-1.95-2.87C97,37.53,90.76,34,82.07,36.81a5,5,0,0,1-5.37-1.08C68.86,29.51,61.86,28.79,55,36c-1.29,1.36-2.4,1.08-3.95.31-4.8-2.39-9.65-1.84-14.42.27-1.43.64-2.82,2.66-4.38,1.28s-.75-3.47-.53-5.25c.27-2.17,1.86-3.54,3.63-4.49,2.12-1.13,4-2.35,4.74-4.8a3,3,0,0,1,1.55-1.87c6.23-1.72,10-7.35,15.71-9.79a11.44,11.44,0,0,1,15.18,6.76c2.37,7.14,8.56,7.53,13.62,8.16,5.87.73,9.93,2.08,11.39,8.11a2.82,2.82,0,0,0,2.89,2.24c4.51.36,7.37,3.11,9,7C110.65,46.81,113.73,47.94,114.85,51.33Z"/></g></g></svg>