<svg xmlns="http://www.w3.org/2000/svg" viewBox="0 0 256.41 68.03"><defs><style>.cls-1{fill:#c0dce2;}.cls-2{fill:#d3e5ea;}.cls-3{fill:#c7e4ee;}.cls-4{fill:#f6fbfb;}.cls-5{fill:#9bd3ec;}.cls-6{fill:#bce3f4;}.cls-7{fill:#b5dded;}.cls-8{fill:#e3f2f8;}.cls-9{fill:#def2f9;}.cls-10{fill:#c4e4f1;}</style></defs><title>wave</title><g id="Layer_2" data-name="Layer 2"><g id="Layer_7" data-name="Layer 7"><path class="cls-1" d="M0,11.14c8.93,10,35.66,20.13,35.27-4C37.17,7.18,0,78.65,0,11.14Z"/><path class="cls-2" d="M248,5.12c19.53,16.35,1.65,42.92-19.21,22C228.11,29.88,254.92,4.91,248,5.12Z"/><path class="cls-2" d="M46.83,29.15c-4.44-7.28-6.17-15.47-11.56-22,3,8.95,57.65,22.77,64.2,24.66,14.21,4.11,66.38,13.92,74.84,22.27C147.21,64.61,64,51.5,46.83,29.15Z"/><path class="cls-1" d="M241.1,32.9c14,3.83-44.47-18.74-51.6-20.56-3.07-.78-18.91-6-20.49-6.84-7-3.7-4.91,15.3-9.94,13.49C149.54-28.48,226.83,27.31,241.1,32.9Z"/><path class="cls-2" d="M89,7.05c3.52-15.85,67.33,21.71,74.84,28.76,3.29,3.09-36.81-4.8-39.11-6.06-7.37-4-9.07-16.29-16.44-19.74C103.27,7.63,93,9.18,89,7.05Z"/><path class="cls-1" d="M137.45,26.12a66.65,66.65,0,0,1-8.49-10q2.61,2.76-4-6c8.89,2.54,31.51,13.11,39.15,16.5,3,1.34-.89-10.72-1-10.65C169,12.39,172.47,56.86,137.45,26.12Z"/><path class="cls-1" d="M212.06,17.14C206.32,26.44,257.59,2.23,229.84,3,248.4-9.52,250.3,47.57,212.06,17.14Z"/><path class="cls-1" d="M64,21C89.7,35.23,86,9.51,96,9,133.81,25.75,51.64,33.67,64,21Z"/><path class="cls-3" d="M64,21C61.51,25.52,66.58,23.39,64,21Z"/><path class="cls-1" d="M164,38.16q15.75-4.65,8.83-21c67.5,29.63-48.38,57.21-55.07,17.94C119.11,34.18,157.32,38.9,164,38.16Z"/><path class="cls-1" d="M163.52,59.58C176,58,187.55,45.35,199,45.17,209.15,45,229,61.36,241.91,63,216,71.49,188.83,68.47,163.52,59.58Z"/><path class="cls-1" d="M11.16,61.32c18.41-1.37,29.41-19.76,42.78-21.49,0,0,42.19,10.77,42,8.28C71.34,60.54,26.27,53.34,11.16,61.32Z"/><path class="cls-2" d="M192.82,35.16c-3.54-6-21-31.14-32-18.09-10.11-19.5,25.07-3.52,26.47-2.87,23.45,10.85,27.85,38.2,57.49,45.1C245.54,70.33,195.31,38.53,192.82,35.16Z"/><path class="cls-4" d="M183,50.23a6.79,6.79,0,0,1-7.7,3.83"/><path class="cls-5" d="M11.16,61.32C10,63.36-8,61.32,11.16,61.32Z"/><path class="cls-6" d="M172.07,5C153.19,5.74,172.11,4.93,172.07,5Z"/><path class="cls-7" d="M124.36,41.18l-8.44-5.8"/><path class="cls-8" d="M157.94,40,144,41"/><path class="cls-9" d="M121.34,24.81l8,8.11C129,33.11,120.28,25.83,121.34,24.81Z"/><path class="cls-10" d="M136,24.7C133.47,22,130.12,20,129,16.12"/></g></g></svg>